<?xml version="1.0" ?>
<!DOCTYPE svg  PUBLIC '-//W3C//DTD SVG 1.1//EN'  'http://www.w3.org/Graphics/SVG/1.1/DTD/svg11.dtd'>
<!-- Uploaded to: SVG Repo, www.svgrepo.com, Generator: SVG Repo Mixer Tools -->
<svg width="800px" height="800px" viewBox="0 0 100 100" enable-background="new 0 0 100 100" id="Layer_1" version="1.1" xml:space="preserve" xmlns="http://www.w3.org/2000/svg" xmlns:xlink="http://www.w3.org/1999/xlink">
<g>
<g>
<rect clip-rule="evenodd" fill="#39B6CC" fill-rule="evenodd" height="18.649" width="74.589" x="7.256" y="22.283"/>
</g>
<g>
<path d="M83.266,42.354H5.833V20.861h56.889v2.845H8.678V39.51h71.744V23.706h-6.661v-2.845h9.505V42.354z M70.63,23.706h-2.839    v-2.845h2.839V23.706z"/>
</g>
<g>
<rect clip-rule="evenodd" fill="#39B6CC" fill-rule="evenodd" height="18.65" width="74.589" x="7.256" y="40.932"/>
<path d="M83.266,61.003H5.833V39.51h77.433V61.003z M8.678,58.159h71.744V42.354H8.678V58.159z"/>
</g>
<g>
<rect clip-rule="evenodd" fill="#39B6CC" fill-rule="evenodd" height="18.644" width="74.589" x="7.256" y="59.582"/>
<path d="M83.266,79.647H5.833V58.159h77.433V79.647z M8.678,76.803h71.744V61.003H8.678V76.803z"/>
</g>
<g>
<rect fill="#F2F2F2" height="2.845" width="20.816" x="14.871" y="49.091"/>
</g>
<g>
<rect fill="#F2F2F2" height="2.845" width="2.446" x="38.662" y="49.091"/>
</g>
<g>
<rect fill="#F2F2F2" height="2.845" width="20.816" x="15.007" y="29.595"/>
</g>
<g>
<rect fill="#F2F2F2" height="2.845" width="2.446" x="38.798" y="29.595"/>
</g>
<g>
<rect fill="#F2F2F2" height="2.844" width="20.816" x="14.871" y="66.611"/>
</g>
<g>
<rect fill="#F2F2F2" height="2.844" width="2.446" x="38.662" y="66.611"/>
</g>
<g>
<path clip-rule="evenodd" d="M59.39,49.708c-0.395,2.687-0.248,10.318-0.092,13.268    c0.388,7.313,4.166,13.203,8.941,17.776c0.923,0.888,6.258,5.416,7.735,5.527c2.693,0.207,11.109-7.841,13.827-12.683    c3.384-6.021,3.975-15.311,3.126-23.757c-1.089-0.324-15.486-3.42-16.681-3.42L59.39,49.708z" fill="#FF7C24" fill-rule="evenodd"/>
<path d="M76.08,87.705L76.08,87.705c-0.074,0-0.146-0.003-0.215-0.008c-2.34-0.177-8.552-5.863-8.612-5.921    c-5.858-5.611-9.013-11.911-9.375-18.726c-0.141-2.684-0.319-10.654,0.104-13.549l0.146-0.997l17.981-3.508h0.138    c1.501,0,16.336,3.257,17.086,3.479l0.917,0.271l0.094,0.95c0.595,5.933,0.957,17.017-3.302,24.596    c-1.34,2.388-4.055,5.636-7.086,8.476C81.556,85.021,78.24,87.705,76.08,87.705z M60.693,50.902    c-0.233,3.076-0.121,9.236,0.024,11.998c0.322,6.068,3.184,11.729,8.505,16.824c1.354,1.301,5.759,4.837,6.881,5.136    c0.608-0.03,2.715-1.17,5.908-4.166c2.79-2.615,5.36-5.675,6.551-7.795c2.731-4.862,3.829-12.812,3.044-21.923    c-3.272-0.757-13.655-2.958-15.267-3.126L60.693,50.902z"/>
</g>
<g>
<path d="M73.459,71.952c-0.463,0-0.897-0.225-1.163-0.604l-4.509-6.41c-0.452-0.643-0.298-1.53,0.345-1.981    c0.644-0.453,1.53-0.298,1.981,0.344l3.305,4.7l7.955-12.092c0.432-0.656,1.313-0.838,1.97-0.407    c0.656,0.433,0.838,1.314,0.406,1.97l-9.102,13.838c-0.26,0.394-0.696,0.634-1.168,0.642    C73.473,71.952,73.466,71.952,73.459,71.952z" fill="#F2F2F2"/>
</g>
<g>
<rect clip-rule="evenodd" fill="#FF7C24" fill-rule="evenodd" height="5.997" width="6.183" x="67.664" y="28.44"/>
<path d="M75.269,35.858h-9.027v-8.84h9.027V35.858z M69.086,33.014h3.339v-3.151h-3.339V33.014z"/>
</g>
<g>
<rect clip-rule="evenodd" fill="#FF7C24" fill-rule="evenodd" height="5.996" width="6.176" x="54.71" y="28.532"/>
<path d="M62.31,35.949h-9.022v-8.84h9.022V35.949z M56.131,33.105h3.333v-3.152h-3.333V33.105z"/>
</g>
</g>
</svg>