<?xml version="1.0" encoding="utf-8"?>
<!-- Uploaded to: SVG Repo, www.svgrepo.com, Generator: SVG Repo Mixer Tools -->
<svg width="800px" height="800px" viewBox="0 -94.64 467.197 467.197" xmlns="http://www.w3.org/2000/svg"><defs><style>.a{fill:#ffffff;}.b{fill:#c6c6c6;}.c{fill:#211715;}.d{fill:#85807f;}.e{fill:#7abee6;}</style></defs><path class="a" d="M104.82,188.334c-1.164-3.092-2.225-6.637-3.182-10.234-1.306,3.49-2.383,6.364-2.383,6.364a102.58,102.58,0,0,1-6.675,16.148,24.356,24.356,0,0,1-4.444,6.213,14.6,14.6,0,0,1-5.082,3.337,18.2,18.2,0,0,1-15.164-1.131,20.861,20.861,0,0,1-9.948-11.121l15.288-29.7A193.126,193.126,0,0,0,77,145.639s.051-.855.124-2.052c-1.908-1.959-4.479-4.213-4.935-4.841-1.167-1.667-1.184-5.323-1.009-6.315a27.7,27.7,0,0,1,6.913-14.4c3.912-4.007,8.3-6.688,12.776-7.393,3.444-2.556,8.918-4.948,16.889-6.778a187.206,187.206,0,0,1,21.387-3.424c.071.077.113.119.113.119,9.983,9.978,21.991,11.007,33.528,7.9a19.032,19.032,0,0,0,8.305-5.267l.609-.638c6.088,1.288,19.4,4.179,23.585,5.414,7.16,2.13,11.42,3.62,14.59,5.99,4.025-1.033,10.447,1.043,14.358,5.05a24.321,24.321,0,0,1,6.59,13.425c.174.992.157,4.648-1.01,6.315a34.75,34.75,0,0,1-5.114,6.09l-3.406,3.2,1.521,8.4a350.693,350.693,0,0,1,4.474,36.99,23.766,23.766,0,0,1,2.657,3.593,22.817,22.817,0,0,1,1.5,20.306c-1.489,3.805-5.6,8.394-9.444,10.055-5.111,2.211-13.021,2.528-18.472.139-4.618-2.024-10.417-6.75-11.257-12.25l-.252-1.654c-.023,5.7-.359,13.152-.878,17.571l.282,10.566a138.027,138.027,0,0,1,5.112,33.862H104.421a138.027,138.027,0,0,1,5.112-33.862l1.071-9.513a3.948,3.948,0,0,1-.4-1.1c-1.62-7.9-.81-19.87.02-25.333l-.3-7.334a47.745,47.745,0,0,1-4.944-9.722C104.925,188.61,104.872,188.472,104.82,188.334Z"/><path class="a" d="M114.721,37.817a33.117,33.117,0,0,1,.975-3.78l.022-.067a32.938,32.938,0,0,1,8.516-13.632c6.958-6.635,16.468-9.443,26.538-9.294,10.072-.15,19.583,2.659,26.542,9.294A32.938,32.938,0,0,1,185.83,33.97l.022.067a32.335,32.335,0,0,1,1.472,7.454c2.508-.063,4.218-.042,6.154.034a2.844,2.844,0,0,1,1.959.953c1.125,1.333,1.946,5.262,1.674,12.48a38.247,38.247,0,0,1-2.038,10.579,3.618,3.618,0,0,1-3.02,2.278c-.7.071-4.137.233-5.137.309l-.437.034A34.816,34.816,0,0,1,172.3,88.5c-6.626,4.35-13.656,5.143-21.529,5.143-7.5,0-14.9-.793-21.529-5.143a34.828,34.828,0,0,1-14.178-20.339l-.435-.034c-1-.076-4.432-.238-5.137-.309a3.618,3.618,0,0,1-3.02-2.278,38.247,38.247,0,0,1-2.038-10.579c-.272-7.218.549-11.147,1.674-12.48a2.844,2.844,0,0,1,1.959-.953c1.936-.076,3.646-.1,6.154-.034A32.008,32.008,0,0,1,114.721,37.817Z"/><path class="b" d="M150.774,93.641c-6.036,0-12.006-.518-17.56-2.985q-.017,1.618-.031,3.236-.048,5-.1,9.99c9.145,6.841,19.6,7.29,29.7,4.575a16.954,16.954,0,0,0,5.679-2.923q-.072-7.428-.142-14.857C162.862,93.125,157.09,93.641,150.774,93.641Z"/><path class="a" d="M46.482,140.925q-.88-.594-1.781-1.179a43.162,43.162,0,0,0-9.539-4.873,4.979,4.979,0,0,0-4.41.509,18.85,18.85,0,0,0-4.174,3.647,56.035,56.035,0,0,0,6.874,6.151c-3.47.218-6.942-.019-9.851-1.8q-4.951-3.038-9.609-6.522a11.594,11.594,0,0,0-3.687-2.133,3.365,3.365,0,0,0-3.323.579c-1.026.705-2.734,2.065-3.643,2.745a2.764,2.764,0,0,0-.889,2.806,7.638,7.638,0,0,0,1.463,2.735A149.459,149.459,0,0,0,20.9,163.039c2.232,2.149,4.659,4.3,7.658,5.076a24.967,24.967,0,0,0,7.215.37c1.62-.1,3.481-.252,5.471-.42,7.769,14.15,10.858,19.836,18.373,30.3a14.309,14.309,0,0,0,4.613,3.993,13.355,13.355,0,0,0,4.638,1.519,15.59,15.59,0,0,0,11.167-2.47,12.684,12.684,0,0,0,5.447-9.89c.105-5.581-3.775-10.346-7.442-14.556-5.476-6.286-14.409-15.345-19.715-21.5-1.376-4.441-1.748-6.689-4.373-8.923A81.842,81.842,0,0,0,46.482,140.925Z"/><path class="a" d="M459.047,64.127C446.276,28.452,412.947,2.411,369.4,2.411c-54.691,0-92.994,41.105-95.215,90.214q-12.26,11.229-24.526,22.459c6.049-.051,17.623-.242,25.71-.623,7.208,47.633,44.315,79.19,94.035,79.19,57.665,0,95.32-39.724,95.32-96.508A97.848,97.848,0,0,0,459.047,64.127Z"/><path class="a" d="M393.907,65.8a4.472,4.472,0,0,1,3.233-.67,4.033,4.033,0,0,1,3.319,2.35c.947,2.16.416,5.836-.7,8.012a11.69,11.69,0,0,1-4.481,5.146,8.6,8.6,0,0,1-4.259.922c-.154.347-.266.6-.266.6-.551,1.113-1.845,3.058-1.845,3.058a40.177,40.177,0,0,1-4.2,5.175q.594,1.728,1.191,3.459a15.745,15.745,0,0,0,1.3,3.054c1.546,2.555,4.839,3.905,7.522,5.217.46.225.97.453,1.5.681l-1.382,1.017a44.125,44.125,0,0,1-25.993,8.765,24.994,24.994,0,0,1-10.331-1.914,16.238,16.238,0,0,1-7.513-6.735c1.616-.542,3.18-1.081,4.295-1.553a6.231,6.231,0,0,0,3.621-3.209,22.8,22.8,0,0,1-11.773-5.451c-4.878-4.094-6.945-10.479-7.631-17.52-.4-4.06-.728-8.472-1.255-12.883,0,0-5.182-20.276,21.477-22.147C392.183,38.9,393.907,65.8,393.907,65.8Z"/><path class="c" d="M382.4,91.028a56.329,56.329,0,0,0,2.334,6.357,11.224,11.224,0,0,0,4.116,4.366c3.173,2.078,6.855,3.407,10.346,4.83a2.406,2.406,0,0,0,2.952-1.677,2.474,2.474,0,0,0-1.676-2.952c-.873-.356-1.751-.7-2.623-1.057-.058-.023-.595-.244-.431-.176.136.057-.408-.176-.41-.176q-.54-.237-1.071-.493a46.637,46.637,0,0,1-4.284-2.2c-.318-.2-.627-.405-.932-.621-.214-.152.2.185-.123-.1-.165-.143-.33-.284-.488-.435-.129-.124-.255-.252-.376-.384s-.312-.359-.1-.088a7.075,7.075,0,0,1-.69-1.137,22.275,22.275,0,0,1-.906-2.405l-1-2.929a2.4,2.4,0,1,0-4.629,1.276Z"/><path class="c" d="M346.324,108.069c2.472-.93,5.007-1.683,7.5-2.565a23.472,23.472,0,0,0,3.775-1.53,8.4,8.4,0,0,0,3.4-3.591,2.453,2.453,0,0,0-.861-3.283,2.429,2.429,0,0,0-3.283.861,6.938,6.938,0,0,1-.483.852c-.136.206-.134.135.012-.012-.118.118-.222.25-.34.368s-.245.229-.368.343c-.32.3.157-.07-.073.052-.263.139-.508.314-.774.451-.545.281.268-.081-.061.021-.125.038-.245.1-.367.145-.249.1-.5.2-.753.294-.543.206-1.09.4-1.638.59-2.314.8-4.663,1.513-6.956,2.376a2.455,2.455,0,0,0-1.676,2.952,2.427,2.427,0,0,0,2.952,1.676Z"/><path class="d" d="M366.024,22.544q1.537-.187,3.141-.269A30.757,30.757,0,0,1,389.6,28.251l4.453,3.156.848.784c4.282,3.954,6.376,8.471,7.749,13.985a27.67,27.67,0,0,1,.771,8.49c-.2,3.017-.436,10.052-2.615,13.945a5.423,5.423,0,0,0-.344-1.136,4.033,4.033,0,0,0-3.319-2.35,4.472,4.472,0,0,0-3.233.67,9.192,9.192,0,0,1-3.755.276.655.655,0,0,1-.423-.222,6.309,6.309,0,0,1-.6-.9c-.59-1.013-1.108-2.079-1.7-3.091a34.137,34.137,0,0,0-7.548-9.213c-10.727,0-24.906.01-33.678.017-3.556,3.272-7.364,9.166-7.76,11.563,0,0-.065.393-.163.969a51.513,51.513,0,0,1-.272-17.217,33.836,33.836,0,0,1,4.754-12.062,23.946,23.946,0,0,1,1.768-2.379C349.625,27.54,356.964,23.653,366.024,22.544Z"/><path class="c" d="M393.2,33.888a26.157,26.157,0,0,1,7.843,17.692,54.346,54.346,0,0,1-.421,8.309,19.9,19.9,0,0,1-2,7.7c-1.532,2.688,2.614,5.109,4.145,2.423,1.663-2.921,2.213-6.316,2.6-9.609a51.9,51.9,0,0,0,.451-9.293c-.5-7.658-3.579-15.319-9.222-20.612-2.251-2.112-5.653,1.276-3.394,3.394Z"/><path class="c" d="M356.2,88.138a10.671,10.671,0,0,0,5.105,1.133,10.514,10.514,0,0,0,2.576-.338,19.031,19.031,0,0,0,2.722-1.177,2.4,2.4,0,0,0,1.1-1.434,2.451,2.451,0,0,0-.242-1.849,2.417,2.417,0,0,0-1.434-1.1,2.758,2.758,0,0,0-1.85.242c-.509.228-1,.5-1.513.716l.573-.242a6.4,6.4,0,0,1-1.51.393l.638-.086a10,10,0,0,1-2.517-.006l.638.086a8.32,8.32,0,0,1-1.984-.5l.574.242c-.156-.067-.307-.138-.457-.217a2.4,2.4,0,0,0-2.422,4.145Z"/><path class="c" d="M366.536,70.679c-.37-1.44.068-4.692,2.77-4.843,3.554.188,3.558,4.145,2.274,5.945C370.529,73.255,367.618,73.752,366.536,70.679Z"/><path class="c" d="M345.4,70.349c-.337-1.444.069-4.707,2.544-4.863,3.254.185,3.252,4.154,2.074,5.962C349.054,72.928,346.388,73.43,345.4,70.349Z"/><path class="c" d="M355.469,73.316c-.467.763-.916,1.54-1.314,2.342a9.081,9.081,0,0,0-.371.843,3.277,3.277,0,0,0-.179.96,2.861,2.861,0,0,0,.9,2.2,4.008,4.008,0,0,0,1.613.955,6.506,6.506,0,0,0,1.158.168l-.638-.086.07.01a1.823,1.823,0,0,0,.957.043,1.787,1.787,0,0,0,.892-.285,2.4,2.4,0,0,0,.861-3.284,2.328,2.328,0,0,0-1.434-1.1c-.324-.052-.649-.085-.974-.125l.638.086a1.6,1.6,0,0,1-.39-.105l.573.242a1.591,1.591,0,0,1-.29-.176l.486.376a1.81,1.81,0,0,1-.241-.23l.376.486a.418.418,0,0,1-.05-.087l.242.573a.649.649,0,0,1-.035-.143l.086.638a1,1,0,0,1,0-.155l-.086.638a1.646,1.646,0,0,1,.093-.322l-.242.574a20.848,20.848,0,0,1,1.444-2.613,2.4,2.4,0,0,0-.861-3.283,2.42,2.42,0,0,0-1.85-.242,2.548,2.548,0,0,0-1.434,1.1Z"/><path class="c" d="M383.461,94.8a39.483,39.483,0,0,0,6.207-6.562,31.676,31.676,0,0,0,3.159-4.87,2.4,2.4,0,0,0-4.145-2.422,31.179,31.179,0,0,1-3.051,4.726c-.179.238-.132.267-.007.013a2.914,2.914,0,0,1-.334.423q-.312.389-.633.769-.654.775-1.352,1.513a36.209,36.209,0,0,1-3.238,3.016,2.409,2.409,0,0,0,0,3.394,2.467,2.467,0,0,0,3.394,0Z"/><path class="c" d="M390.809,26.178a34.138,34.138,0,0,0-17.132-6.261,40.616,40.616,0,0,0-16.729,2.313,33.818,33.818,0,0,0-13.18,8.563,33.157,33.157,0,0,0-7.878,15.578,49.806,49.806,0,0,0,.168,19.9,2.4,2.4,0,1,0,4.628-1.276c-1.969-9.846-1.215-21.774,5.546-29.761,6.264-7.4,15.846-10.727,25.375-10.6a29.583,29.583,0,0,1,16.779,5.694,2.422,2.422,0,0,0,3.284-.861,2.452,2.452,0,0,0-.861-3.284Z"/><path class="c" d="M374.709,94.072c-6.564,2.9-14.372,4.316-21.084,1.046a19.382,19.382,0,0,1-7.953-6.682,26.048,26.048,0,0,1-3.479-10.067c-.79-4.968-.936-10.053-1.525-15.049a2.475,2.475,0,0,0-2.4-2.4,2.414,2.414,0,0,0-2.4,2.4c.593,5.033.839,10.112,1.524,15.133a31.232,31.232,0,0,0,3.85,11.944c4.365,7.255,12.922,11.485,21.273,11.395a37.04,37.04,0,0,0,14.617-3.575,2.418,2.418,0,0,0,.861-3.284,2.461,2.461,0,0,0-3.284-.861Z"/><path class="c" d="M395.118,67.868a2.039,2.039,0,0,1,1.111-.4,4.51,4.51,0,0,1,.465.009c-.282-.051-.256-.046.076.016.244.06.484.118.722.2-.431-.147.28.17.372.221q.338.236-.053-.048c.082.073.162.149.238.229.311.264-.229-.446.068.086.058.1.112.223.18.318q.139.3-.079-.2c.048.124.091.249.128.375a6.317,6.317,0,0,1,.184.815c-.089-.545.012.367.015.471.007.232,0,.464,0,.7-.012.316-.035.632-.072.945.054-.457-.086.452-.1.538a12.4,12.4,0,0,1-.464,1.658c-.037.1-.075.2-.116.306q.16-.369-.008,0c-.111.214-.216.43-.329.642-.228.429-.469.85-.734,1.257-.135.209-.276.413-.422.614.275-.378-.28.326-.34.391q-.322.359-.678.684a4.976,4.976,0,0,1-.408.353,7.349,7.349,0,0,1-.8.523c-.145.081-.7.3-.067.063a10.679,10.679,0,0,1-1.389.42c-.1.023-.853.13-.349.077a7.862,7.862,0,0,1-.92.046q-.231,0-.462-.021.384.065-.045-.013c-.1-.027-.9-.322-.494-.128a2.466,2.466,0,0,0-3.284.861,2.42,2.42,0,0,0,.861,3.283,9.361,9.361,0,0,0,7.508.041,12.263,12.263,0,0,0,5.649-5.116c2.25-3.7,3.659-9.667.471-13.26a7.162,7.162,0,0,0-8.852-1.09,2.452,2.452,0,0,0-.861,3.284,2.426,2.426,0,0,0,3.283.861Z"/><path class="a" d="M389.759,58.06l13.048-3.441a26.556,26.556,0,0,1,.4,6.822,18.549,18.549,0,0,1-1.233,6.552l-11.715,3.089"/><path class="c" d="M390.4,60.374l13.048-3.441-2.952-1.676c.034.14.06.282.085.423.032.174.056.348.085.522.053.322-.013-.162-.03-.227a3.371,3.371,0,0,1,.055.482,33.489,33.489,0,0,1,.122,4.824c-.018.458-.045.916-.085,1.373q-.03.348-.069.694c-.013.118-.083.6-.031.256-.1.681-.232,1.359-.4,2.027-.108.422-.229.841-.377,1.25-.036.1-.091.2-.117.308-.06.242.305-.695.171-.407l1.434-1.1-11.715,3.089a2.4,2.4,0,0,0,1.276,4.629l9.815-2.589c.967-.255,2.227-.386,2.959-1.118a2.944,2.944,0,0,0,.678-1.2,13.154,13.154,0,0,0,.525-1.667,30.335,30.335,0,0,0,.751-8.374,22.5,22.5,0,0,0-.5-4.468,2.434,2.434,0,0,0-2.952-1.676L389.12,55.746a2.4,2.4,0,1,0,1.277,4.628Z"/><path class="a" d="M383.432,52.65c-13.53-.015-35.547.011-42.865.016a14.777,14.777,0,0,0-4.951.851q-1.259.449-2.5.934a6.8,6.8,0,0,0-4.3,6.444c.057,3.681.135,7.123.147,12.215a6.792,6.792,0,0,0,6.789,6.78l41.352,0a24.573,24.573,0,0,0,8.822-1.636l.1-.036a6.791,6.791,0,0,0,4.355-6.408c-.042-3.96-.1-8.692-.156-12.46A6.788,6.788,0,0,0,383.432,52.65Z"/><path class="c" d="M383.432,50.25q-16.452-.018-32.9.008l-6.483,0a40.489,40.489,0,0,0-6.4.266,23.223,23.223,0,0,0-4.753,1.447,9.976,9.976,0,0,0-4.119,2.65c-2.158,2.5-2.38,5.233-2.327,8.393.051,3.042.1,6.084.109,9.126.012,3.023.794,5.865,3.181,7.894,2.527,2.149,5.4,2.251,8.565,2.25h29.079c5.325,0,10.953.486,16.165-.78,3.352-.815,6.62-2.227,8.232-5.483,1.6-3.228.961-7.256.917-10.741-.043-3.4.456-7.261-1.254-10.345a9.343,9.343,0,0,0-8.006-4.689c-3.09-.081-3.088,4.719,0,4.8a4.441,4.441,0,0,1,4.14,2.939,10.525,10.525,0,0,1,.269,3.385q.032,2.4.062,4.8.027,2.191.052,4.383a6.646,6.646,0,0,1-.479,3.347c-1.121,2.129-3.706,2.662-5.868,3.125a33.3,33.3,0,0,1-7.032.459H337.443a8.53,8.53,0,0,1-3.409-.332,4.605,4.605,0,0,1-2.679-4.534c-.021-2.846-.046-5.691-.093-8.536-.035-2.082-.473-4.492,1.014-6.195a6.167,6.167,0,0,1,2.723-1.6,16.221,16.221,0,0,1,4.649-1.194c3.5-.214,7.061-.034,10.564-.037q16.61-.015,33.22-.008C386.52,55.053,386.525,50.253,383.432,50.25Z"/><path class="c" d="M376.5,62.493c.042,3.126.008,6.255.008,9.381a2.4,2.4,0,0,0,4.8,0c0-3.126.034-6.255-.008-9.381a2.4,2.4,0,1,0-4.8,0Z"/><path class="c" d="M342.243,63q8.6,0,17.195-.008c4.038,0,8.1-.12,12.135.033,3.089.117,3.084-4.684,0-4.8-4.035-.153-8.1-.033-12.135-.033q-8.6,0-17.195.008c-3.089,0-3.094,4.8,0,4.8Z"/><path class="a" d="M323.042,121.414a38.576,38.576,0,0,1,6.416-8.436c4.213-4.221,12.412-7.3,18.436-9.07.566-.167,1.9-.51,2.729-.721a16.075,16.075,0,0,0,7.9,7.484,24.994,24.994,0,0,0,10.331,1.914,44.125,44.125,0,0,0,25.993-8.765l1.432-1.129.62-.488c7.436,2.651,14,5.834,18.636,9.716,1.975,1.655,4.476,4.274,7.407,10,3.829,7.48,7.184,19.369,9.439,26.893"/><path class="a" d="M396.442,181.041c-5.956-3.655-10.583-6.111-15.92-10.861l-7.437-4.731c-2.1-3.314-3.595-9.184-.1-11.092.685-.338,1.557-.478,1.937-1.141a3.5,3.5,0,0,0,.276-1.252,4.007,4.007,0,0,1,3.292-3.279c-.357.052-.394-2.892-.365-3.171a7.472,7.472,0,0,1,2.185-4.579c.329-.317,1.264-.718,1.454-1.082-.028-1.147.173-3.046.144-3.548a4.979,4.979,0,0,1,.7-2.579,3.194,3.194,0,0,1,2.979-1.547,2.644,2.644,0,0,1,2.437,1.381c1.419,2.826,2.667,8.083,3.93,10.744l7.4,3.709c2.806-1.083,4.606.271,5.278,1.361a5.928,5.928,0,0,1,.708,2.82,65.774,65.774,0,0,1-.128,7.686,2.474,2.474,0,0,0,.048,1.058,1.779,1.779,0,0,0,.561.728c3.985,3.2,6.95,5.472,11.783,6.93"/><path class="c" d="M461.362,63.489a95.591,95.591,0,0,0-29.51-41.956A97.5,97.5,0,0,0,382.218.785,103.371,103.371,0,0,0,328.261,8.5a94.345,94.345,0,0,0-38.513,31.429,98.106,98.106,0,0,0-17.482,46.412q-.342,3.135-.485,6.286l.7-1.7q-12.261,11.231-24.526,22.459a2.424,2.424,0,0,0,1.7,4.1c8.571-.073,17.148-.225,25.71-.623l-2.314-1.762c3.185,20.823,12.616,40.625,27.988,55.2s35.447,22.885,56.376,25.121c21.052,2.25,43.217-1.131,61.957-11.227a88.348,88.348,0,0,0,38.468-41.556,109.7,109.7,0,0,0,6.6-68.713,97.961,97.961,0,0,0-3.079-10.436,2.461,2.461,0,0,0-2.953-1.676,2.42,2.42,0,0,0-1.676,2.952c7.874,22.161,7.367,47.383-.628,69.468a84.545,84.545,0,0,1-33.225,42.312c-16.973,10.966-37.359,15.321-57.417,14.64-20.133-.684-40.246-7.087-56.007-19.873-15.528-12.6-25.861-30.291-30.3-49.7-.59-2.576-1.076-5.174-1.475-7.787a2.4,2.4,0,0,0-2.315-1.762c-8.562.4-17.139.55-25.71.623l1.7,4.1,15.01-13.744L274.048,96c.6-.551,1.286-1.07,1.83-1.676a3.228,3.228,0,0,0,.727-2.2q.088-1.743.236-3.482a94.828,94.828,0,0,1,5.891-25.607A90.254,90.254,0,0,1,313.274,22.7,93.584,93.584,0,0,1,364.067,4.943c19.375-.962,38.877,3.436,55.445,13.67A90.329,90.329,0,0,1,454.359,58.8c.868,1.956,1.649,3.948,2.374,5.961a2.462,2.462,0,0,0,2.952,1.676A2.421,2.421,0,0,0,461.362,63.489Z"/><path class="a" d="M317.916,157.607c-2.293.51-5.824,1.074-8.148,1.421a30.339,30.339,0,0,1-5.85.444,28.057,28.057,0,0,1-8.639-2.512,8.064,8.064,0,0,1-3.764-2.469c-.9-1.285-1.016-3.054-2.135-4.149-.938-.918-2.337-1.126-3.543-1.645a5.686,5.686,0,0,1-3.39-5.244c-.075-2.536.455-5.079,1.8-6.185,1.55-1.274,4.029-1.53,6.47-1.256s5.374.795,7.814,1.083a19.807,19.807,0,0,0,12.047-2.441q-1.323-1.235-2.629-2.485c-1.628-1.56-3.371-3.79-2.411-5.829a3.762,3.762,0,0,1,3.925-1.788,11.031,11.031,0,0,1,4.2,1.836l8,4.932a14.609,14.609,0,0,1,2.918,2.154,12.568,12.568,0,0,1,2.7,5.351,87.975,87.975,0,0,1,2.5,14.327"/><path class="b" d="M303.962,136.976l-.3.046a47.286,47.286,0,0,1,2.149,4.942,104.336,104.336,0,0,1,5.163,16.88c2.215-.342,5.017-.808,6.945-1.237a108.138,108.138,0,0,0-7.911-22.639A19.736,19.736,0,0,1,303.962,136.976Z"/><path class="b" d="M369.521,169.684q12.24-12.657,23.585-26.14a5.4,5.4,0,0,1,2.308-1.882c2.182-.687,4.292,1.815,4.149,4.1s-1.706,4.194-3.195,5.93l-3.815,4.448L383.842,166.3c-1.6,1.868-3.271,3.789-5.489,4.857s-5.152,1.058-6.884-.691"/><path class="c" d="M350.685,100.7a71.306,71.306,0,0,0-16.847,6.224A33.543,33.543,0,0,0,320.97,120.2c-1.528,2.69,2.617,5.111,4.145,2.422A28.9,28.9,0,0,1,336.6,110.883a67.275,67.275,0,0,1,15.364-5.558c2.994-.753,1.726-5.383-1.276-4.629Z"/><path class="c" d="M348.516,104.34c7.429,14.823,28.641,11.771,40.848,5.657a50.4,50.4,0,0,0,8.613-5.609,2.413,2.413,0,0,0,0-3.394,2.46,2.46,0,0,0-3.394,0,45.164,45.164,0,0,1-8.809,5.422,40.925,40.925,0,0,1-11.856,3.451c-7.913,1.04-17.3-.044-21.257-7.949-1.384-2.762-5.526-.334-4.145,2.422Z"/><path class="c" d="M392.657,103.294a91.074,91.074,0,0,1,13.36,5.357,36.708,36.708,0,0,1,9.1,6.124c5.672,5.55,8.393,13.859,10.819,21.212,1.471,4.459,2.783,8.966,4.129,13.463.884,2.952,5.518,1.7,4.629-1.276-2.566-8.569-4.965-17.272-8.7-25.427a39.67,39.67,0,0,0-6.8-10.661,36.614,36.614,0,0,0-9.327-6.822,93.668,93.668,0,0,0-15.943-6.6c-2.945-.957-4.206,3.676-1.276,4.629Z"/><path class="c" d="M332.178,153.152a110.24,110.24,0,0,0-1.987-12.7c-.94-3.936-2.24-7.639-5.629-10.1-1.672-1.215-3.513-2.228-5.271-3.312-1.83-1.129-3.636-2.316-5.5-3.378-3.184-1.81-7.926-2.506-10.163,1.178-2.819,4.644,2.479,8.92,5.478,11.711,2.26,2.1,5.662-1.285,3.394-3.4-1.462-1.36-3.269-2.7-4.346-4.408-.487-.771-.8-1.579.317-1.818,1.641-.349,3.543,1.257,4.824,2.048l5.683,3.5c1.467.905,3.217,1.733,4.295,3.129a13.8,13.8,0,0,1,2.008,4.981,90.817,90.817,0,0,1,2.1,12.558,2.475,2.475,0,0,0,2.4,2.4,2.414,2.414,0,0,0,2.4-2.4Z"/><path class="c" d="M308.794,132.9a17.571,17.571,0,0,1-8.074,1.932,69.531,69.531,0,0,1-8.745-1.061c-2.759-.362-5.677-.45-8.2.933-2.47,1.357-3.371,4.019-3.65,6.669a9.579,9.579,0,0,0,2.049,7.6,8.143,8.143,0,0,0,3.188,2.1c.878.346,2.044.478,2.579,1.327.576.915.746,2.056,1.3,2.993a7.955,7.955,0,0,0,3.239,2.926,36.42,36.42,0,0,0,8.127,3.047,24.8,24.8,0,0,0,9.434.024c2.845-.411,5.7-.861,8.5-1.474,3.017-.659,1.74-5.287-1.276-4.629-2.241.49-4.509.86-6.776,1.212a31.464,31.464,0,0,1-6.405.577,23.176,23.176,0,0,1-7.343-2.092,12.05,12.05,0,0,1-2.727-1.325,4.756,4.756,0,0,1-1.315-2.295,7.254,7.254,0,0,0-1.9-2.958,9.781,9.781,0,0,0-3.319-1.652,3.594,3.594,0,0,1-2.651-3.728c-.009-1.639.082-3.751,1.811-4.38,2.147-.781,4.706-.179,6.889.145a38.946,38.946,0,0,0,8.933.762,23.3,23.3,0,0,0,8.744-2.517c2.751-1.407.325-5.55-2.423-4.145Z"/><path class="c" d="M305.5,161.094a5.736,5.736,0,0,0,2.671,4.146c1.9.985,4.485.378,6.454-.088,1.912-.452,3.8-1.013,5.7-1.53,1.918-.523,4.245-.811,5.733-2.232A2.4,2.4,0,1,0,322.665,158c.178-.1.141-.082-.111.059q.275-.133-.138.018c-.4.087-.788.217-1.18.324l-2.186.6c-1.5.409-3,.825-4.5,1.225a26.85,26.85,0,0,1-4.071.713c-.3-.021-.338-.01-.12.031q.3.191-.036-.007l.178.122c.155.232.158.231.007,0q-.185-.368-.031,0c-.052-.137-.1-.274-.14-.414-.084-.277-.147-.559-.208-.841a2.4,2.4,0,0,0-4.629,1.276Z"/><path class="c" d="M307.933,136.18a98.36,98.36,0,0,1,7.669,22.065c.669,3.014,5.3,1.738,4.629-1.276a103.591,103.591,0,0,0-8.153-23.212,2.425,2.425,0,0,0-3.284-.861,2.45,2.45,0,0,0-.861,3.284Z"/><path class="c" d="M301.287,137.683a59.756,59.756,0,0,1,3.959,9.7,96.167,96.167,0,0,1,3.143,10.856,2.4,2.4,0,1,0,4.629-1.276,97.553,97.553,0,0,0-3.267-11.209,65.707,65.707,0,0,0-4.32-10.492c-1.519-2.689-5.667-.273-4.144,2.423Z"/><path class="c" d="M418.247,166.282a25.294,25.294,0,0,1-7.036-3.5c-1.078-.75-2.112-1.557-3.138-2.376a5.9,5.9,0,0,1-.778-.652q.369.915.322.122c.014-.2.027-.393.039-.59.05-.8.091-1.609.116-2.415.09-2.863.466-6.533-1.264-9a6.627,6.627,0,0,0-7.787-2.175,2.461,2.461,0,0,0-1.676,2.952A2.421,2.421,0,0,0,400,150.327a4.027,4.027,0,0,1,1.595-.308c-.254-.036.687.23.389.1-.246-.1.667.454.2.088a4.464,4.464,0,0,1,.434.425c-.314-.329,0-.008.1.228a3.964,3.964,0,0,1,.225,1.329c.083,1.5.076,3.005.032,4.5-.044,1.524-.489,3.4-.026,4.879.469,1.5,1.882,2.362,3.056,3.277,1.154.9,2.319,1.788,3.542,2.594a29.023,29.023,0,0,0,7.422,3.464c2.959.912,4.224-3.72,1.276-4.629Z"/><path class="c" d="M375.157,164.237a13.036,13.036,0,0,1-1.68-4.086,7.279,7.279,0,0,1-.179-1.842,3.077,3.077,0,0,1,.318-1.335,1.8,1.8,0,0,1,.939-.685A4.752,4.752,0,0,0,377,154.427c.828-1.422.15-3.037,2.134-3.428,2.457-.484,2.1-3.955,0-4.628l-.057-.019,1.435,1.1c.444.592.038.379.069.063-.05.506,0-.164-.012-.295a12.6,12.6,0,0,1-.046-1.374,4.992,4.992,0,0,1,1.211-2.931c.548-.65-.1.016.444-.355a8.7,8.7,0,0,0,.975-.695,3.041,3.041,0,0,0,1.014-2.316c.055-1.188-.022-2.469.148-3.643.1-.668.766-1.845,1.626-1.253a4.393,4.393,0,0,1,.287.668c.282.64.509,1.312.739,1.973.955,2.746,1.7,5.571,2.923,8.218a2.42,2.42,0,0,0,3.284.861,2.456,2.456,0,0,0,.861-3.284,67.274,67.274,0,0,1-2.2-6.364c-.8-2.368-1.539-5.378-4.033-6.465a5.8,5.8,0,0,0-7.34,2.407c-1.141,2.105-1.113,4.83-1.093,7.183l.7-1.7c-.195.25-.862.585-1.28.942a8.506,8.506,0,0,0-1.446,1.69,9.674,9.674,0,0,0-1.616,4.726c-.124,1.933-.067,4.782,2.127,5.485v-4.628a6.416,6.416,0,0,0-4.968,4.955c-.314,1.652.1.448.1.449a5.506,5.506,0,0,0-1.458.656,6.138,6.138,0,0,0-2.182,2.355c-1.917,3.705-.386,8.555,1.666,11.874,1.622,2.622,5.776.215,4.145-2.423Z"/><path class="c" d="M371.218,171.382q11.647-12.057,22.5-24.85c.594-.7,1.386-2.089,2.237-2.484.406-.189.711.157.956.592.9,1.589-.742,3.575-1.71,4.733-3.652,4.366-7.41,8.647-11.116,12.968-1.716,2-3.377,4.358-5.537,5.911-1.466,1.054-3.852,1.936-5.378.512-2.258-2.105-5.659,1.282-3.394,3.395a8.309,8.309,0,0,0,7.887,1.8c2.877-.745,5.156-2.861,7.071-5.029,4.516-5.114,8.909-10.348,13.335-15.54,1.9-2.227,3.872-4.719,3.9-7.8a6.543,6.543,0,0,0-4.631-6.3c-3.421-.881-5.567,2.143-7.483,4.4q-3.279,3.861-6.635,7.655-7.51,8.492-15.393,16.643c-2.147,2.223,1.243,5.621,3.394,3.4Z"/><path class="c" d="M378.825,171.877c5.013,4.44,10.724,7.754,16.406,11.236a2.4,2.4,0,1,0,2.423-4.144c-2.694-1.652-5.431-3.236-8.085-4.951a58.358,58.358,0,0,1-7.35-5.535,2.456,2.456,0,0,0-3.394,0,2.423,2.423,0,0,0,0,3.394Z"/><path class="b" d="M62.218,204.747a20.554,20.554,0,0,1-5.22-10.1c.816,1.181,1.684,2.41,2.621,3.713a14.309,14.309,0,0,0,4.613,3.993,13.355,13.355,0,0,0,4.638,1.519,15.59,15.59,0,0,0,11.167-2.47,12.684,12.684,0,0,0,5.447-9.89c.105-5.581-3.775-10.346-7.442-14.556-1.392-1.6-3.007-3.374-4.729-5.237,8.138.124,15.361,3.384,19.136,10.433,3.317,6.192,2.746,11.9.327,18a23.309,23.309,0,0,1-4.64,6.673,14.6,14.6,0,0,1-5.082,3.337,18.2,18.2,0,0,1-15.164-1.131A22.374,22.374,0,0,1,62.218,204.747Z"/><path class="b" d="M214.553,189.859c.148.138.291.27.43.4,4.728,4.165,9.28,9.851,9.28,15.463,0,5.021-.405,7.456-3.572,10.956-1.227,1.357-4.5,2.319-6.313,2.583a14.2,14.2,0,0,1-8.756-1.014c-2.816-1.48-5.777-3.058-7.664-5.618-1.405-1.2-4.536-6.91-7.215-11.974.5,2.96.992,5.839.992,5.839a53.764,53.764,0,0,1,.282,7.12c.161,1.058.252,1.651.252,1.651.84,5.5,6.639,10.226,11.257,12.25,5.451,2.389,13.361,2.072,18.472-.139,3.84-1.661,7.955-6.25,9.444-10.055a22.817,22.817,0,0,0-1.5-20.306,23.387,23.387,0,0,0-19.673-11.4C211.84,187.221,213.331,188.712,214.553,189.859Z"/><path class="c" d="M60.651,154.855c-.992-3.221-1.753-6.627-4.113-9.17a36.394,36.394,0,0,0-4.992-4.106c-1.83-1.369-3.718-2.66-5.634-3.906a51.9,51.9,0,0,0-4.883-2.869,26.409,26.409,0,0,0-5.967-2.451c-4.16-.907-8.21,2.3-10.557,5.464a2.422,2.422,0,0,0,.376,2.909,46.8,46.8,0,0,0,7.363,6.526,2.418,2.418,0,0,0,3.283-.861,2.45,2.45,0,0,0-.861-3.283,42.266,42.266,0,0,1-6.391-5.777l.375,2.909c-.135.182.4-.4.5-.5.316-.313.646-.61.983-.9a16.473,16.473,0,0,1,1.835-1.387c1.383-.881,2.672-.254,4.06.312a49.423,49.423,0,0,1,8.622,4.812c2.895,1.927,6.12,3.935,8.5,6.5,1.608,1.733,2.127,4.612,2.879,7.052.906,2.944,5.541,1.688,4.628-1.276Z"/><path class="c" d="M37.34,142.4c-3.181.378-6.57.833-9.724.051a14.8,14.8,0,0,1-4.381-2.129q-2.355-1.493-4.642-3.089c-2.773-1.935-5.775-5.063-9.39-5.107a6.827,6.827,0,0,0-4.171,1.634c-1.131.833-2.338,1.66-3.39,2.59-3.084,2.725-1.233,6.521.746,9.194q3.344,4.512,6.995,8.788,3.606,4.206,7.517,8.139c2.391,2.4,4.861,5.013,7.859,6.665,3.394,1.872,7.233,1.975,11.016,1.75,4.03-.24,8.048-.66,12.074-.954a2.458,2.458,0,0,0,2.4-2.4,2.42,2.42,0,0,0-2.4-2.4c-3.377.247-6.749.566-10.125.82-2.722.2-5.658.54-8.342-.107-2.719-.654-4.822-2.618-6.783-4.5q-3.663-3.518-7.074-7.288-3.255-3.593-6.275-7.39-1.533-1.929-2.991-3.916c-.453-.616-1.716-1.874-1.5-2.712.141-.543,1.648-1.344,2.141-1.717.758-.572,1.633-1.513,2.569-1.332,1.378.266,2.588,1.4,3.684,2.218q2.053,1.522,4.165,2.963c2.913,1.985,5.911,4.237,9.417,5a31.91,31.91,0,0,0,10.605.029,2.475,2.475,0,0,0,2.4-2.4,2.414,2.414,0,0,0-2.4-2.4Z"/><path class="c" d="M193.539,231.18c.529-4.582.714-9.213.824-13.822a63.6,63.6,0,0,0-.314-11.5,2.419,2.419,0,0,0-2.952-1.677,2.458,2.458,0,0,0-1.676,2.953c.073.457-.036-.636-.013-.106.006.132.028.266.04.4.032.343.054.688.073,1.032.048.876.071,1.754.084,2.631.034,2.2.006,4.405-.05,6.606-.114,4.5-.3,9.016-.816,13.489a2.415,2.415,0,0,0,2.4,2.4,2.457,2.457,0,0,0,2.4-2.4Z"/><path class="e" d="M132.755,131.019c0,10.826.029,24.587.029,34.912a.724.724,0,0,0,.733.726c8.748-.075,24.785-.117,35-.155a.727.727,0,0,0,.726-.727c0-10.263-.066-23.98-.066-34.846a.725.725,0,0,0-.728-.726c-4.429,0-26.562.031-34.972.09A.725.725,0,0,0,132.755,131.019Z"/><path class="c" d="M154.242,137.358q-5.5.009-10.994.03a4.552,4.552,0,0,0-3.262.857,3.747,3.747,0,0,0-1.078,3.045q0,2.183,0,4.365,0,2.4,0,4.805a2.4,2.4,0,0,0,4.8,0q0-2.495,0-4.989,0-1.4,0-2.8a12.361,12.361,0,0,0,0-2.018,1.544,1.544,0,0,1-1.545,1.542h.292l.627,0,1.218,0q1.6-.007,3.21-.011,3.366-.011,6.732-.015a2.4,2.4,0,0,0,0-4.8Z"/><path class="c" d="M163.088,158.1q0-4.8,0-9.594a2.4,2.4,0,0,0-4.8,0q.007,4.8,0,9.594a2.4,2.4,0,0,0,4.8,0Z"/><path class="c" d="M130.355,131.019q0,9.151.015,18.3,0,4.527.01,9.054l0,4.083a16.629,16.629,0,0,0,.145,4.4c.833,2.883,4.581,2.189,6.868,2.175q3.816-.025,7.632-.041,8.271-.038,16.542-.062l3.616-.012a19.606,19.606,0,0,0,3.968-.1c3.337-.725,2.487-5.159,2.483-7.69q-.015-9.234-.044-18.469-.01-4.461-.015-8.922c0-1.356.288-3.069-.386-4.3A3.382,3.382,0,0,0,168,127.8c-3.113-.059-6.234.008-9.348.013q-7.515.012-15.031.033-3.411.01-6.822.025c-2.3.011-5.757-.506-6.359,2.507a2.461,2.461,0,0,0,1.676,2.953,2.424,2.424,0,0,0,2.952-1.677l-.031.061-.861.861c-.315.214-.7.084-.111.11.209.01.42,0,.629,0l1.611-.008q1.72-.009,3.441-.015,4-.015,8.009-.024,7.737-.02,15.475-.029l3.088,0h1.144c.178,0,.361.011.538,0,.518-.035.263.228-.249-.116l-.861-.861q-.15-.558-.115-.105v1.4q0,1.127,0,2.254,0,2.223.007,4.445.009,4.477.022,8.956.012,4.423.022,8.846,0,2.05.008,4.1,0,1.082,0,2.164,0,.478,0,.958c0,.361-.27,1,.116.428l.861-.861q.733-.159.059-.112h-.325l-1,0-2.074.007-4.419.015q-4.8.016-9.6.035-4.569.017-9.137.04-2.048.011-4.095.024l-1.864.013-.878.006-.425,0q-.63-.034.142.122l.861.861q.145.579.113.131v-1.338q0-1.084,0-2.169,0-2.161,0-4.323,0-4.437-.01-8.875-.011-8.821-.014-17.643C135.155,127.931,130.355,127.926,130.355,131.019Z"/><path class="c" d="M136.516,123.674c0,1.4.028,2.794.028,4.191a2.475,2.475,0,0,0,.7,1.7,2.4,2.4,0,0,0,3.394,0,2.494,2.494,0,0,0,.7-1.7c0-1.4-.027-2.794-.028-4.191a2.471,2.471,0,0,0-.7-1.7,2.4,2.4,0,0,0-3.394,0,2.494,2.494,0,0,0-.7,1.7Z"/><path class="c" d="M148.356,123.674c0,1.4.027,2.794.028,4.191a2.471,2.471,0,0,0,.7,1.7,2.4,2.4,0,0,0,3.394,0,2.494,2.494,0,0,0,.7-1.7c0-1.4-.028-2.794-.028-4.191a2.475,2.475,0,0,0-.7-1.7,2.4,2.4,0,0,0-3.394,0,2.494,2.494,0,0,0-.7,1.7Z"/><path class="c" d="M160.2,123.674c0,1.4.028,2.794.029,4.191a2.474,2.474,0,0,0,.7,1.7,2.4,2.4,0,0,0,3.4,0,2.494,2.494,0,0,0,.7-1.7c0-1.4-.028-2.794-.029-4.191a2.474,2.474,0,0,0-.7-1.7,2.4,2.4,0,0,0-3.4,0,2.494,2.494,0,0,0-.7,1.7Z"/><path class="c" d="M136.491,168.786c0,1.4.028,2.794.028,4.191a2.475,2.475,0,0,0,.7,1.7,2.4,2.4,0,0,0,3.394,0,2.494,2.494,0,0,0,.7-1.7c0-1.4-.027-2.794-.028-4.191a2.473,2.473,0,0,0-.7-1.7,2.4,2.4,0,0,0-3.394,0,2.494,2.494,0,0,0-.7,1.7Z"/><path class="c" d="M148.331,168.786c0,1.4.027,2.794.028,4.191a2.475,2.475,0,0,0,.7,1.7,2.4,2.4,0,0,0,3.394,0,2.494,2.494,0,0,0,.7-1.7c0-1.4-.028-2.794-.028-4.191a2.477,2.477,0,0,0-.7-1.7,2.4,2.4,0,0,0-3.394,0,2.494,2.494,0,0,0-.7,1.7Z"/><path class="c" d="M160.171,168.786c0,1.4.027,2.794.028,4.191a2.471,2.471,0,0,0,.7,1.7,2.4,2.4,0,0,0,3.394,0,2.494,2.494,0,0,0,.7-1.7c0-1.4-.028-2.794-.028-4.191a2.482,2.482,0,0,0-.7-1.7,2.4,2.4,0,0,0-3.394,0,2.489,2.489,0,0,0-.7,1.7Z"/><path class="c" d="M175.4,134.42c-1.4,0-2.794.028-4.192.028a2.479,2.479,0,0,0-1.7.7,2.4,2.4,0,0,0,0,3.394,2.5,2.5,0,0,0,1.7.7c1.4,0,2.794-.027,4.192-.028a2.479,2.479,0,0,0,1.7-.7,2.4,2.4,0,0,0,0-3.394,2.5,2.5,0,0,0-1.7-.7Z"/><path class="c" d="M175.4,146.26c-1.4,0-2.794.027-4.192.028a2.475,2.475,0,0,0-1.7.7,2.4,2.4,0,0,0,0,3.394,2.5,2.5,0,0,0,1.7.7c1.4,0,2.794-.028,4.192-.028a2.484,2.484,0,0,0,1.7-.7,2.4,2.4,0,0,0,0-3.394,2.491,2.491,0,0,0-1.7-.7Z"/><path class="c" d="M175.4,158.1c-1.4,0-2.794.028-4.192.028a2.484,2.484,0,0,0-1.7.7,2.4,2.4,0,0,0,0,3.395,2.494,2.494,0,0,0,1.7.7c1.4,0,2.794-.027,4.192-.028a2.475,2.475,0,0,0,1.7-.7,2.4,2.4,0,0,0,0-3.394,2.5,2.5,0,0,0-1.7-.7Z"/><path class="c" d="M130.284,134.42c-1.4,0-2.794.028-4.191.028a2.479,2.479,0,0,0-1.7.7,2.4,2.4,0,0,0,0,3.394,2.5,2.5,0,0,0,1.7.7c1.4,0,2.794-.027,4.191-.028a2.475,2.475,0,0,0,1.7-.7,2.4,2.4,0,0,0,0-3.394,2.492,2.492,0,0,0-1.7-.7Z"/><path class="c" d="M130.284,146.26c-1.4,0-2.794.027-4.191.028a2.475,2.475,0,0,0-1.7.7,2.4,2.4,0,0,0,0,3.394,2.5,2.5,0,0,0,1.7.7c1.4,0,2.794-.028,4.191-.028a2.48,2.48,0,0,0,1.7-.7,2.4,2.4,0,0,0,0-3.394,2.487,2.487,0,0,0-1.7-.7Z"/><path class="c" d="M130.284,158.1c-1.4,0-2.794.028-4.191.028a2.484,2.484,0,0,0-1.7.7,2.4,2.4,0,0,0,0,3.395,2.494,2.494,0,0,0,1.7.7c1.4,0,2.794-.027,4.191-.028a2.471,2.471,0,0,0,1.7-.7,2.4,2.4,0,0,0,0-3.394,2.492,2.492,0,0,0-1.7-.7Z"/><path class="c" d="M130.81,91.042l-.106,11.083a2.4,2.4,0,1,0,4.8,0l.106-11.083a2.4,2.4,0,0,0-4.8,0Z"/><path class="c" d="M165.923,91.042l.106,11.083a2.4,2.4,0,0,0,4.8,0l-.106-11.083a2.4,2.4,0,0,0-4.8,0Z"/><path class="c" d="M200.914,161.084A114.015,114.015,0,0,1,196.464,182a72.627,72.627,0,0,1-3.295,8.82c-1.2,2.624-2.561,5.778-4.445,7.786-2.112,2.251,1.276,5.652,3.394,3.394,2.311-2.463,3.811-5.718,5.195-8.757a81.38,81.38,0,0,0,3.664-9.593,120.317,120.317,0,0,0,4.737-22.565,2.415,2.415,0,0,0-2.4-2.4,2.455,2.455,0,0,0-2.4,2.4Z"/><path class="c" d="M95.166,161.151c3.059,13.09,5.258,27.047,12.683,38.529,1.672,2.585,5.829.181,4.145-2.423-7.191-11.119-9.237-24.7-12.2-37.382-.7-3.006-5.332-1.734-4.629,1.276Z"/><path class="c" d="M107.907,205.164a93.137,93.137,0,0,0-.873,19.922c.225,3.34.232,7.571,2.81,10.047,2.56,2.458,6.3,2.643,9.626,3.054,13.907,1.715,28.064,1.8,42.054,1.47,7.017-.166,14.038-.475,21.03-1.105a2.464,2.464,0,0,0,2.4-2.4,2.418,2.418,0,0,0-2.4-2.4,355.227,355.227,0,0,1-38.076,1.163c-6.65-.117-13.3-.39-19.928-.99-2.782-.252-5.512-.535-8.216-.979a5.289,5.289,0,0,1-3.45-1.571c-.756-.984-.729-2.834-.858-4.053a79.953,79.953,0,0,1-.282-11.477q.1-2.736.345-5.463.1-1.143.23-2.283c.037-.319.075-.637.116-.955.055-.435-.042.29.015-.12.027-.195.056-.39.085-.584a2.478,2.478,0,0,0-1.676-2.953,2.418,2.418,0,0,0-2.952,1.677Z"/><path class="c" d="M120.977,203.368c15.576,1.933,31.385,1.974,47.046,1.306q6.539-.278,13.065-.756a2.459,2.459,0,0,0,2.4-2.4,2.42,2.42,0,0,0-2.4-2.4,356.091,356.091,0,0,1-47.369.609c-4.258-.259-8.508-.633-12.742-1.159a2.413,2.413,0,0,0-2.4,2.4,2.459,2.459,0,0,0,2.4,2.4Z"/><path class="c" d="M130.505,97.985c-5.167.031-10.423,1.107-15.493,2.006a91.983,91.983,0,0,0-17.026,4.268,35.423,35.423,0,0,0-8.331,4.3,2.469,2.469,0,0,0-.861,3.283,2.417,2.417,0,0,0,3.283.861c4.781-3.5,10.7-5.26,16.405-6.556,4.861-1.1,9.8-1.941,14.733-2.656a53.631,53.631,0,0,1,7.29-.71c3.087-.019,3.094-4.819,0-4.8Z"/><path class="c" d="M169.391,101.493a19.356,19.356,0,0,1-4.435,3.479,17.861,17.861,0,0,1-5.026,1.713,37.278,37.278,0,0,1-10.1.87,29.087,29.087,0,0,1-18.877-8.7c-2.2-2.174-5.6,1.218-3.394,3.394a34.166,34.166,0,0,0,22.271,10.106,42.385,42.385,0,0,0,11.747-1.125,22.228,22.228,0,0,0,11.209-6.342c2.153-2.218-1.238-5.616-3.394-3.4Z"/><path class="c" d="M202.628,144.747c4.066-9.8,7.8-19.648,9.559-30.153l-1.677,1.676c2.882-.682,6.531.566,9.181,2.185a18.648,18.648,0,0,1,7.066,8.492,28.888,28.888,0,0,1,1.675,5.717c.167.8.06-.338.055.464,0,.291.015.582.01.873a10.066,10.066,0,0,1-.216,2.1,8.332,8.332,0,0,1-1.748,3.122,30.745,30.745,0,0,1-3.894,4.25c-4.333,4.026-8.628,8.095-12.942,12.141-2.257,2.118,1.142,5.508,3.394,3.394l12.763-11.972a39.464,39.464,0,0,0,4.731-5.265,11.683,11.683,0,0,0,2.291-4.241c.97-4.035.046-8.158-1.511-11.923a24.081,24.081,0,0,0-8.471-10.8c-3.84-2.623-9.03-4.268-13.66-3.172a2.342,2.342,0,0,0-1.676,1.676c-1.756,10.506-5.492,20.359-9.558,30.154a2.414,2.414,0,0,0,1.676,2.952,2.461,2.461,0,0,0,2.952-1.676Z"/><path class="c" d="M211.084,111.883a30.392,30.392,0,0,0-7.648-3.813c-3-1.1-6.072-2.064-9.162-2.871-5.362-1.4-10.792-2.555-16.206-3.732q-3.726-.811-7.458-1.6c-3.014-.631-4.3,4-1.276,4.629,10.354,2.168,20.867,4.154,30.91,7.528a30.014,30.014,0,0,1,8.417,4,2.418,2.418,0,0,0,3.284-.861,2.456,2.456,0,0,0-.861-3.284Z"/><path class="c" d="M106.821,275.608a112.1,112.1,0,0,1,1.5-16.979,116.649,116.649,0,0,1,3.529-16.245c.905-2.96-3.726-4.226-4.629-1.276a117.442,117.442,0,0,0-3.589,16.637,119.93,119.93,0,0,0-1.608,17.863c0,3.088,4.8,3.093,4.8,0Z"/><path class="c" d="M198.933,275.608a119.93,119.93,0,0,0-1.608-17.863,117.442,117.442,0,0,0-3.589-16.637c-.9-2.945-5.536-1.689-4.629,1.276a116.649,116.649,0,0,1,3.529,16.245,112.1,112.1,0,0,1,1.5,16.979c0,3.088,4.8,3.093,4.8,0Z"/><path class="c" d="M187.324,43.891a34.69,34.69,0,0,1,5.793.02c-.218-.032.652.089.462.094l.161.17q-.366-.492-.15-.177c.088.178.194.351.285.527-.285-.553-.025-.065.022.088a28.8,28.8,0,0,1,.849,9.148,30.073,30.073,0,0,1-1.828,10.707,1.58,1.58,0,0,1-.844.905c-.646.364.053.026-.292.064-.292.032-.588.039-.881.057-1.328.079-2.658.135-3.985.23a2.46,2.46,0,0,0-2.4,2.4,2.42,2.42,0,0,0,2.4,2.4c2.462-.177,5.557.169,7.767-1.086,3.093-1.757,3.7-6.1,4.243-9.3a47.616,47.616,0,0,0,.526-11.269c-.168-2.367-.4-5.079-1.644-7.175-2.065-3.484-7.039-2.685-10.484-2.6-3.084.073-3.095,4.873,0,4.8Z"/><path class="c" d="M114.224,39.091c-1.812-.043-3.624-.051-5.436.008a5.716,5.716,0,0,0-4.638,2.02c-1.415,1.82-1.717,4.368-1.952,6.584a45.65,45.65,0,0,0,.214,11.056,42.057,42.057,0,0,0,1.035,5.19,9.412,9.412,0,0,0,2.265,4.64c2.335,2.172,5.965,1.722,8.92,1.935a2.421,2.421,0,0,0,2.4-2.4,2.447,2.447,0,0,0-2.4-2.4c-1.327-.095-2.657-.151-3.985-.23-.293-.018-.589-.025-.881-.057-.345-.038.354.3-.292-.064a1.55,1.55,0,0,1-.792-.757,20.1,20.1,0,0,1-1.362-5.357,35.563,35.563,0,0,1-.518-5.5,28.276,28.276,0,0,1,.818-9.054c.048-.154.346-.759.053-.182.09-.177.2-.349.285-.527q.216-.315-.15.177l.161-.17c-.189-.005.68-.126.462-.094a34.69,34.69,0,0,1,5.793-.02c3.09.073,3.089-4.727,0-4.8Z"/><path class="c" d="M116.624,41.491a30.6,30.6,0,0,1,7.849-17.97,30.874,30.874,0,0,1,15.709-8.98,47.016,47.016,0,0,1,18.851-.488,32,32,0,0,1,16.3,7.712,30.648,30.648,0,0,1,9.594,19.726,2.462,2.462,0,0,0,2.4,2.4,2.419,2.419,0,0,0,2.4-2.4,36.012,36.012,0,0,0-8.838-20.9A35.242,35.242,0,0,0,162.832,9.959a52.857,52.857,0,0,0-21.595-.534,36.387,36.387,0,0,0-18.556,9.081,35.674,35.674,0,0,0-10.857,22.985,2.419,2.419,0,0,0,2.4,2.4,2.449,2.449,0,0,0,2.4-2.4Z"/><path class="c" d="M112.317,66.811c2.572,13.5,12.891,25.281,26.521,28.161a62.467,62.467,0,0,0,21.605.431,32.777,32.777,0,0,0,18.233-8.985,37.559,37.559,0,0,0,10.555-19.607,2.464,2.464,0,0,0-1.677-2.952,2.422,2.422,0,0,0-2.952,1.676c-2.28,11.973-11.083,22.33-23.234,24.851a48.789,48.789,0,0,1-9.29.847,63.267,63.267,0,0,1-9.494-.452,28.575,28.575,0,0,1-16.458-7.894,33.135,33.135,0,0,1-9.18-17.352,2.422,2.422,0,0,0-2.952-1.676,2.45,2.45,0,0,0-1.677,2.952Z"/><path class="c" d="M141.216,51.052c.665,2.16.232,7.13-3.861,7.553-5.41-.032-5.7-6.041-3.877-8.867C134.969,47.425,139.353,46.463,141.216,51.052Z"/><path class="c" d="M169.633,51.052c.665,2.16.231,7.13-3.862,7.553-5.41-.032-5.7-6.041-3.877-8.867C163.385,47.425,167.77,46.463,169.633,51.052Z"/><path class="c" d="M104,143.471C99.508,132.656,95.126,121.6,93.18,110c-.229-1.367-1.786-1.874-2.952-1.676-9.209,1.56-16.7,9.415-19.853,17.885-1.366,3.675-2.222,7.6-1.216,11.478a8.2,8.2,0,0,0,2.534,4c1.536,1.473,3.038,2.986,4.579,4.452,4.329,4.118,9.034,7.824,13.4,11.9,2.256,2.107,5.657-1.28,3.394-3.394-3.508-3.278-7.2-6.346-10.789-9.534-1.614-1.434-3.137-2.936-4.685-4.438a45.741,45.741,0,0,1-3.534-3.412c-.157-.189.022.283-.059-.154-.032-.173-.185-.579-.25-.848a9.865,9.865,0,0,1-.248-2.118c-.007-.3-.008-.6,0-.9.014-.325.08-.724-.014-.173a30.816,30.816,0,0,1,.741-3.23,23.771,23.771,0,0,1,5.715-10.275c3.183-3.23,7.02-5.846,11.557-6.615l-2.952-1.676c1.945,11.6,6.328,22.659,10.816,33.474a2.48,2.48,0,0,0,2.952,1.676A2.415,2.415,0,0,0,104,143.471Z"/><path class="c" d="M220.5,157.068q3,17.169,4.261,34.568a2.459,2.459,0,0,0,2.4,2.4,2.42,2.42,0,0,0,2.4-2.4q-1.315-18.02-4.433-35.844a2.421,2.421,0,0,0-2.952-1.677,2.455,2.455,0,0,0-1.676,2.953Z"/><path class="c" d="M212.585,188.149c11.26,1.37,19.739,12.359,17.912,23.6-.883,5.433-4.032,10.729-9.086,13.261-4.5,2.253-10.63,2.324-15.365.882-5-1.523-10.537-5.876-11.463-11.264a2.419,2.419,0,0,0-2.952-1.676,2.454,2.454,0,0,0-1.676,2.952c1.057,6.153,6.753,11.176,12.214,13.619a26.907,26.907,0,0,0,19.518.546c6.38-2.33,11.209-8.3,12.942-14.764a25.189,25.189,0,0,0-3.439-20.775,26.329,26.329,0,0,0-18.6-11.178,2.414,2.414,0,0,0-2.4,2.4,2.459,2.459,0,0,0,2.4,2.4Z"/><path class="a" d="M195.694,209.534c-2.748-4.454-6.651-12.195-8.479-15.573a58.536,58.536,0,0,1-12.5-6.5,8.322,8.322,0,0,1-1.745-1.378,8.064,8.064,0,0,1-1.005-1.566c-2.875-5.389-7.221-14.252-9.138-20.052a2.88,2.88,0,0,1,.023-1.962,7.934,7.934,0,0,1,3.021-3.054c-.866-1.6-2.1-3.591-1.781-5.042a8.2,8.2,0,0,1,1.85-2.882,33.715,33.715,0,0,1,7.171-5.675c2.043-1.314,4.784-1.588,6.628.409a78.8,78.8,0,0,1,7.591,10.079c1.148,1.753,1.99,3.107,2.72,4.3,2.023-1.879,2.113-2.525,3.61-3.212,1.009-.463,1.581-.232,2.723-.042.75.125,1.345,1.017,1.714,1.491a42.26,42.26,0,0,1,4.279,7.072,4.809,4.809,0,0,1,.167,3.368,18.941,18.941,0,0,1-1.119,2.708,14.823,14.823,0,0,1-1.675,2.941c2.823,2.462,10.984,11.4,15.231,15.293,4.728,4.165,9.28,9.851,9.28,15.463,0,5.021-.405,7.456-3.572,10.956-1.227,1.357-4.5,2.319-6.313,2.583a14.2,14.2,0,0,1-8.756-1.014c-2.816-1.48-5.777-3.058-7.664-5.618A15.549,15.549,0,0,1,195.694,209.534Z"/><path class="c" d="M195.8,165.166c-4.06-5.854-7.432-12.11-11.887-17.7-1.213-1.522-2.488-3.337-4.253-4.252a7.345,7.345,0,0,0-5.462-.465,17.42,17.42,0,0,0-4.84,2.727,31.732,31.732,0,0,0-4.646,3.866c-1.4,1.444-2.961,3.264-3.062,5.369-.1,2.146,1.164,4.147,2.152,5.956l.861-3.283a10.439,10.439,0,0,0-3.65,3.5,5.6,5.6,0,0,0-.244,4.967c1.039,2.977,2.306,5.88,3.615,8.747q2.035,4.458,4.293,8.812a25.687,25.687,0,0,0,2.178,3.845,14.634,14.634,0,0,0,4.077,3.2,56.572,56.572,0,0,0,11.646,5.822c2.928,1.007,4.185-3.628,1.276-4.628a52.1,52.1,0,0,1-10.862-5.569,12.317,12.317,0,0,1-2.064-1.421,7.342,7.342,0,0,1-1.179-1.9q-1.15-2.175-2.248-4.378c-1.6-3.2-3.141-6.431-4.524-9.728-.624-1.487-1.238-2.994-1.734-4.529-.178-.55-.2-.538.028-1a4.68,4.68,0,0,1,1.815-1.595,2.443,2.443,0,0,0,.861-3.283,20.126,20.126,0,0,1-1.3-2.529c-.257-.69-.271-.7.077-1.3a15.487,15.487,0,0,1,3.909-3.96,19.061,19.061,0,0,1,4.678-3.029c1.587-.57,2.457.2,3.479,1.364,5.053,5.747,8.531,12.551,12.866,18.8a2.463,2.463,0,0,0,3.284.861,2.422,2.422,0,0,0,.861-3.284Z"/><path class="c" d="M201.308,176.831a20.942,20.942,0,0,0,3.436-6.511,7.64,7.64,0,0,0,.16-4.487,20.159,20.159,0,0,0-1.969-3.959,35.308,35.308,0,0,0-2.356-3.674,7.669,7.669,0,0,0-3.048-2.95A6.617,6.617,0,0,0,193.29,155a8.225,8.225,0,0,0-3.456,2.45,2.4,2.4,0,0,0,3.394,3.394,10.465,10.465,0,0,1,.971-.993c.124-.107.114-.1-.028.028l.211-.13c.761-.321-.346.05.432-.2-.3.095-.04,0,.161.01.4.027-.574-.129.2.033.077.016.759.09.5.061-.188-.021-.209-.2.012.04.011.011.517.6.222.237.146.181.284.369.423.555q.546.728,1.046,1.486c.615.93,1.18,1.892,1.716,2.87a11.366,11.366,0,0,1,1.253,2.539,4.139,4.139,0,0,1-.348,1.98,17.5,17.5,0,0,1-2.086,4.074,2.468,2.468,0,0,0,0,3.394,2.418,2.418,0,0,0,3.394,0Z"/><path class="c" d="M74.6,145.639a191.2,191.2,0,0,1-3.681,21.93c-.684,3.008,3.943,4.292,4.629,1.276A202.548,202.548,0,0,0,79.4,145.639a2.415,2.415,0,0,0-2.4-2.4,2.455,2.455,0,0,0-2.4,2.4Z"/><path class="c" d="M96.941,183.826a99.527,99.527,0,0,1-6.564,15.811l4.387,1.849.472-1.136A2.414,2.414,0,0,0,93.56,197.4a2.461,2.461,0,0,0-2.952,1.676l-.473,1.136a2.4,2.4,0,0,0,4.387,1.849A107.437,107.437,0,0,0,101.57,185.1a2.4,2.4,0,1,0-4.629-1.276Z"/><path class="c" d="M75.387,174.219a19.462,19.462,0,0,1,11.96,5.076,16.683,16.683,0,0,1,4.905,13.752c-.592,4.992-3.063,10.26-7.19,13.3-4.175,3.074-9.916,3.252-14.6,1.277a18.861,18.861,0,0,1-10.5-11.162c-.992-2.907-5.63-1.658-4.628,1.276a23.757,23.757,0,0,0,11.176,13.276,20.541,20.541,0,0,0,19.232.542c5.721-3,9.423-9.243,10.8-15.385a21.732,21.732,0,0,0-4.4-18.722c-4.134-5.061-10.408-7.456-16.766-8.03a2.417,2.417,0,0,0-2.4,2.4,2.452,2.452,0,0,0,2.4,2.4Z"/><path class="c" d="M57.016,157.6c4.305,4.929,8.857,9.637,13.314,14.426,2.124,2.283,4.24,4.576,6.283,6.932a30.832,30.832,0,0,1,5.589,8.117,9.932,9.932,0,0,1-.252,8.623,11.114,11.114,0,0,1-6.518,5.321,13.187,13.187,0,0,1-9.6-.531c-3.191-1.609-4.975-4.458-6.942-7.311C54.632,187,50.866,180.528,47.23,173.963c-1.5-2.7-5.644-.285-4.145,2.422,3.569,6.443,7.258,12.8,11.429,18.876,2.257,3.287,4.362,6.578,7.8,8.745a17.527,17.527,0,0,0,11.829,2.21c7.482-1.07,13.988-7.48,13.731-15.313-.247-7.573-6.175-13.545-10.971-18.815-5.458-6-11.162-11.77-16.5-17.878-2.036-2.331-5.419,1.076-3.4,3.394Z"/><path class="c" d="M185.143,195.172c2.8,5.194,5.369,10.534,8.471,15.561a21.929,21.929,0,0,0,5.4,6.291c3.487,2.694,7.631,4.838,12.114,4.877,3.6.032,8.208-.739,10.977-3.257a14.456,14.456,0,0,0,4.427-9.423,19.231,19.231,0,0,0-2.512-12.1c-2.175-3.669-5.206-6.506-8.256-9.419-2.694-2.573-5.26-5.281-7.848-7.96-2.152-2.227-4.255-4.571-6.61-6.59a2.462,2.462,0,0,0-3.394,0,2.42,2.42,0,0,0,0,3.394c4.191,3.593,7.824,7.906,11.7,11.826,2.306,2.332,4.836,4.46,7.042,6.885,2.374,2.609,4.783,5.906,5.162,9.526.3,2.88.051,6.082-1.473,8.465a6.1,6.1,0,0,1-2.85,2.664,14.562,14.562,0,0,1-4.205,1.081,12.535,12.535,0,0,1-5.676-.476,24.244,24.244,0,0,1-4.963-2.749,17.09,17.09,0,0,1-3.245-3.078c-.109-.125-.217-.251-.327-.376-.207-.237.267.365.067.087-.053-.074-.111-.147-.163-.223-.306-.446-.61-.89-.9-1.347-3.274-5.158-5.9-10.712-8.8-16.082-1.468-2.72-5.614-.3-4.145,2.422Z"/></svg>