<svg width="32" height="20" viewBox="0 0 32 20" fill="none" xmlns="http://www.w3.org/2000/svg">
<path d="M4 16H1V8L6 1H20L24 8H31V16H28" stroke="#67A99F" stroke-width="2" stroke-miterlimit="10"/>
<path d="M6.99939 19C8.65624 19 9.99939 17.6569 9.99939 16C9.99939 14.3431 8.65624 13 6.99939 13C5.34254 13 3.99939 14.3431 3.99939 16C3.99939 17.6569 5.34254 19 6.99939 19Z" stroke="#67A99F" stroke-width="2" stroke-miterlimit="10" stroke-linecap="square"/>
<path d="M25 19C26.6569 19 28 17.6569 28 16C28 14.3431 26.6569 13 25 13C23.3431 13 22 14.3431 22 16C22 17.6569 23.3431 19 25 19Z" stroke="#67A99F" stroke-width="2" stroke-miterlimit="10" stroke-linecap="square"/>
<path d="M1 7.82031H23.68" stroke="#67A99F" stroke-width="2" stroke-miterlimit="10"/>
<path d="M10.0914 16H21.9096" stroke="#67A99F" stroke-width="2" stroke-miterlimit="10"/>
<path d="M13.0001 1V8" stroke="#67A99F" stroke-width="2" stroke-miterlimit="10"/>
</svg>
