<?xml version="1.0" encoding="utf-8"?>
<!-- Generator: Adobe Illustrator 19.0.0, SVG Export Plug-In . SVG Version: 6.00 Build 0)  -->
<svg version="1.1" baseProfile="basic" id="Capa_1" xmlns="http://www.w3.org/2000/svg" xmlns:xlink="http://www.w3.org/1999/xlink"
	 x="0px" y="0px" viewBox="159 381 32 32" xml:space="preserve">
<style type="text/css">
	.st0{fill:none;stroke:#964242;stroke-width:1.5;stroke-linecap:round;stroke-linejoin:round;stroke-miterlimit:10;}
	.st1{fill:none;stroke:#964242;stroke-width:1.5;stroke-linecap:square;stroke-linejoin:round;stroke-miterlimit:10;}
	.st2{fill:none;stroke:#964242;stroke-linecap:round;stroke-linejoin:round;stroke-miterlimit:10;}
	.st3{fill:none;stroke:#964242;stroke-width:2;stroke-linecap:round;stroke-linejoin:round;stroke-miterlimit:10;}
</style>
<g id="XMLID_33_">
	<path id="XMLID_30_" class="st0" d="M182.4,412.5v-0.7c0-0.9-0.9-1.6-1.9-1.6h-10.9c-1.1,0-1.9,0.7-1.9,1.6v0.7H182.4z"/>
	<polygon id="XMLID_27_" class="st0" points="172,409.7 174,407.8 176.2,407.8 178.2,409.7 	"/>
	<rect id="XMLID_28_" x="173.9" y="385.8" class="st1" width="2.3" height="21.1"/>
	<line id="XMLID_31_" class="st2" x1="172.2" y1="385.8" x2="178" y2="385.8"/>
	<path id="XMLID_29_" class="st3" d="M174.9,382c0,0-3.1,0-0.5,4.2h1.5C175.9,386.1,178.8,382,174.9,382z"/>
	<path id="XMLID_32_" class="st3" d="M163.4,388.2c0,0,1.8,2,4.2,0.1h14.1c0,0,2.7,1.5,3.9-0.6"/>
	<path id="XMLID_34_" class="st3" d="M184.2,388.2l-5.5,11.8c0,0-1.2,3.3,2.8,4h5.6c0,0,3.6-0.2,2.5-3.8L184.2,388.2z"/>
	<line id="XMLID_35_" class="st3" x1="179" y1="399.7" x2="188.9" y2="399.7"/>
	<path id="XMLID_37_" class="st3" d="M165.9,388.2l-5.5,11.8c0,0-1.2,3.3,2.8,4h5.6c0,0,3.6-0.2,2.5-3.8L165.9,388.2z"/>
	<line id="XMLID_36_" class="st3" x1="160.7" y1="399.7" x2="170.6" y2="399.7"/>
</g>
</svg>
