<svg width="80" height="80" viewBox="0 0 80 80" fill="none" xmlns="http://www.w3.org/2000/svg">
<path opacity="0.2" d="M40 80C62.0914 80 80 62.0914 80 40C80 17.9086 62.0914 0 40 0C17.9086 0 0 17.9086 0 40C0 62.0914 17.9086 80 40 80Z" fill="#F2A634"/>
<path d="M34.9515 35.2441H23" stroke="#CE7A58" stroke-width="2.5" stroke-miterlimit="10" stroke-linecap="square"/>
<path d="M34.9515 45.4883H23" stroke="#CE7A58" stroke-width="2.5" stroke-miterlimit="10" stroke-linecap="square"/>
<path d="M48.6103 55.7324H23" stroke="#CE7A58" stroke-width="2.5" stroke-miterlimit="10" stroke-linecap="square"/>
<path d="M48.6103 25H23" stroke="#CE7A58" stroke-width="2.5" stroke-miterlimit="10" stroke-linecap="square"/>
<path d="M48.6104 47.1956C52.3822 47.1956 55.4398 44.138 55.4398 40.3662C55.4398 36.5944 52.3822 33.5368 48.6104 33.5368C44.8386 33.5368 41.7809 36.5944 41.7809 40.3662C41.7809 44.138 44.8386 47.1956 48.6104 47.1956Z" stroke="#CE7A58" stroke-width="2.5" stroke-miterlimit="10" stroke-linecap="square"/>
<path d="M59.7081 51.464L53.4387 45.1946" stroke="#CE7A58" stroke-width="2.5" stroke-miterlimit="10" stroke-linecap="square"/>
</svg>
