<?xml version="1.0" encoding="iso-8859-1"?>
<!-- Uploaded to: SVG Repo, www.svgrepo.com, Generator: SVG Repo Mixer Tools -->
<svg height="800px" width="800px" version="1.1" id="Layer_1" xmlns="http://www.w3.org/2000/svg" xmlns:xlink="http://www.w3.org/1999/xlink" 
	 viewBox="0 0 392.598 392.598" xml:space="preserve">
<path style="fill:#56ACE0;" d="M291.782,176.808c6.012,0,10.925-4.848,10.925-10.925V65.422H89.826v100.461
	c0,6.012,4.848,10.925,10.925,10.925H291.782z"/>
<g>
	<path style="fill:#194F82;" d="M235.863,155.022h-113.39c-6.012,0-10.925-4.848-10.925-10.925c0-6.012,4.848-10.925,10.925-10.925
		h113.261c6.012,0,10.925,4.848,10.925,10.925C246.788,150.109,241.875,155.022,235.863,155.022z"/>
	<path style="fill:#194F82;" d="M269.996,109.059H122.473c-6.012,0-10.925-4.848-10.925-10.925c0-6.077,4.848-10.925,10.925-10.925
		h147.459c6.012,0,10.925,4.848,10.925,10.925C280.857,104.21,276.073,109.059,269.996,109.059z"/>
</g>
<path style="fill:#FFC10D;" d="M73.018,21.851c-6.012,0-10.925,4.848-10.925,10.925s4.848,10.925,10.925,10.925h246.497
	c6.012,0,10.925-4.848,10.925-10.925s-4.848-10.925-10.925-10.925C319.58,21.851,73.018,21.851,73.018,21.851z"/>
<path style="fill:#FFFFFF;" d="M207.224,249.794c0-6.012-4.848-10.925-10.925-10.925c-6.077,0-10.925,4.848-10.925,10.925
	c0,6.077,4.848,10.925,10.925,10.925C202.246,260.719,207.224,255.806,207.224,249.794z"/>
<path style="fill:#FFC10D;" d="M69.786,234.602c-9.568,0-17.455,7.822-17.455,17.455c0,9.568,7.822,17.455,17.455,17.455
	s17.455-7.822,17.455-17.455S79.483,234.602,69.786,234.602z"/>
<g>
	<path style="fill:#FFFFFF;" d="M28.089,334.869c-3.879,2.004-6.271,5.818-6.271,9.891v25.988h96.065V344.76
		c0-4.202-2.392-7.952-6.271-9.891C85.883,321.745,53.754,321.745,28.089,334.869z"/>
	<path style="fill:#FFFFFF;" d="M340.202,251.992c0-9.568-7.822-17.455-17.455-17.455c-9.568,0-17.455,7.822-17.455,17.455
		c0,9.568,7.822,17.455,17.455,17.455C332.315,269.446,340.202,261.624,340.202,251.992z"/>
</g>
<path style="fill:#FFC10D;" d="M274.715,370.747h96.065V344.76c0-4.202-2.392-7.952-6.271-9.891
	c-25.729-13.123-57.794-13.123-83.523,0c-3.879,2.004-6.271,5.818-6.271,9.891V370.747L274.715,370.747z"/>
<g>
	<path style="fill:#194F82;" d="M207.224,219.022v-20.428h84.622c18.036,0,32.711-14.675,32.711-32.711V65.034
		c15.709-2.392,27.669-15.903,27.669-32.323C352.226,14.675,337.552,0,319.515,0H72.954C55.046,0,40.372,14.675,40.372,32.711
		c0,16.356,12.024,29.931,27.669,32.323v100.848c0,18.036,14.675,32.711,32.711,32.711h84.558v20.364
		c-12.671,4.461-21.786,16.614-21.786,30.836c0,18.036,14.675,32.711,32.711,32.711s32.711-14.675,32.711-32.711
		C229.01,235.636,219.895,223.547,207.224,219.022z M73.018,43.636c-6.012,0-10.925-4.848-10.925-10.925s4.848-10.925,10.925-10.925
		h246.497c6.012,0,10.925,4.848,10.925,10.925s-4.848,10.925-10.925,10.925H73.018z M100.816,176.873
		c-6.012,0-10.925-4.848-10.925-10.925V65.487h212.881v100.461c0,6.012-4.848,10.925-10.925,10.925H100.816z M196.299,260.784
		c-6.012,0-10.925-4.848-10.925-10.925s4.913-10.861,10.925-10.861c6.012,0,10.925,4.848,10.925,10.925
		S202.311,260.784,196.299,260.784z"/>
	<path style="fill:#194F82;" d="M109.026,252.057c0-21.657-17.648-39.24-39.24-39.24s-39.24,17.648-39.24,39.24
		s17.648,39.24,39.24,39.24S109.026,273.713,109.026,252.057z M52.396,252.057c0-9.568,7.822-17.455,17.455-17.455
		s17.455,7.822,17.455,17.455c0,9.568-7.822,17.455-17.455,17.455S52.396,261.624,52.396,252.057z"/>
	<path style="fill:#194F82;" d="M121.503,315.475c-31.806-16.291-71.564-16.291-103.37,0c-11.119,5.689-18.101,17.002-18.101,29.35
		v36.848c0,6.012,4.848,10.925,10.925,10.925h117.851c6.012,0,10.925-4.848,10.925-10.925v-36.848
		C139.669,332.477,132.687,321.228,121.503,315.475z M117.883,370.812H21.818v-25.988c0-4.202,2.392-7.952,6.271-9.891
		c25.729-13.123,57.794-13.123,83.523,0c3.879,2.004,6.271,5.818,6.271,9.891V370.812z"/>
	<path style="fill:#194F82;" d="M322.747,212.816c-21.657,0-39.24,17.648-39.24,39.24s17.648,39.24,39.24,39.24
		s39.24-17.648,39.24-39.24S344.339,212.816,322.747,212.816z M322.747,269.446c-9.568,0-17.455-7.822-17.455-17.455
		c0-9.568,7.822-17.455,17.455-17.455c9.568,0,17.455,7.822,17.455,17.455C340.202,261.624,332.38,269.446,322.747,269.446z"/>
	<path style="fill:#194F82;" d="M374.4,315.475c-31.806-16.291-71.564-16.291-103.37,0c-11.184,5.689-18.166,16.937-18.166,29.285
		v36.848c0,6.012,4.848,10.925,10.925,10.925H381.64c6.012,0,10.925-4.848,10.925-10.925V344.76
		C392.566,332.477,385.648,321.228,374.4,315.475z M370.78,370.812h-96.065v-25.988c0-4.202,2.392-7.952,6.271-9.891
		c25.729-13.123,57.794-13.123,83.523,0c3.879,2.004,6.271,5.818,6.271,9.891V370.812L370.78,370.812z"/>
</g>
</svg>